<?xml version="1.0" standalone="no"?>
<!DOCTYPE svg PUBLIC "-//W3C//DTD SVG 20010904//EN"
 "http://www.w3.org/TR/2001/REC-SVG-20010904/DTD/svg10.dtd">
<svg version="1.0" xmlns="http://www.w3.org/2000/svg"
 width="243.000000pt" height="243.000000pt" viewBox="0 0 243.000000 243.000000"
 preserveAspectRatio="xMidYMid meet">
<metadata>
Created by potrace 1.11, written by Peter Selinger 2001-2013
</metadata>
<g transform="translate(0.000000,243.000000) scale(0.100000,-0.100000)"
fill="#000000" stroke="none">
<path d="M1536 1784 c-140 -27 -247 -97 -302 -196 -26 -48 -29 -62 -29 -143 0
-80 3 -95 27 -136 76 -128 224 -183 432 -159 236 26 262 28 311 19 115 -21
115 -115 0 -165 -29 -13 -76 -19 -170 -22 -167 -5 -280 17 -420 81 -54 25
-103 43 -108 40 -15 -9 -127 -184 -127 -199 0 -20 172 -100 278 -128 317 -84
648 -44 800 98 71 66 104 133 110 222 6 101 -16 163 -82 230 -99 98 -225 121
-505 89 -84 -9 -172 -14 -194 -11 -110 18 -99 105 17 137 103 29 330 7 488
-47 82 -28 71 -34 137 82 54 98 55 103 1 130 -150 77 -478 115 -664 78z"/>
<path d="M423 1546 c-127 -31 -245 -123 -299 -232 -26 -54 -29 -69 -29 -164 0
-99 2 -110 33 -172 40 -82 101 -138 199 -185 170 -82 429 -81 610 2 l53 24
-14 38 c-29 82 -69 153 -85 153 -9 0 -38 -7 -66 -15 -88 -27 -187 -37 -260
-25 -76 12 -155 46 -155 66 0 12 52 14 309 14 352 0 341 -2 341 78 -1 194
-142 364 -347 417 -68 18 -217 18 -290 1z m287 -242 c68 -39 54 -44 -129 -44
-94 0 -171 4 -171 9 0 54 223 80 300 35z"/>
</g>
</svg>
